<svg width="104.5" height="32" xmlns="http://www.w3.org/2000/svg">.st0{fill-rule:evenodd;clip-rule:evenodd;fill:#fff;}
	.st1{fill:#fff;}
 <g>
  <title>Layer 1</title>
  <g id="svg_1">
   <g id="svg_2">
    <g id="svg_3">
     <path id="svg_4" d="m9.3,20.5c0,-0.1 0,-0.2 0,-0.3c0,-1.8 0,-3.6 0,-5.4c0,-0.1 0,-0.2 0,-0.3c-0.7,0 -1.3,0 -2,0c0,-0.8 0,-1.6 0,-2.4c0.7,0 1.3,0 2,0c0,-0.1 0,-0.2 0,-0.3c0,-0.6 0,-1.2 0,-1.8c0.1,-1.1 0.5,-2 1.6,-2.5c0.4,-0.2 0.8,-0.2 1.2,-0.3c0.6,0 1.2,0 1.9,0c0.1,0 0.1,0 0.2,0c0,0.7 0,1.4 0,2.1c-0.1,0 -0.2,0 -0.3,0c-0.4,0 -0.9,0 -1.3,0c-0.4,0 -0.7,0.3 -0.7,0.7c0,0.6 0,1.2 0,1.8c0.7,0 1.5,0 2.3,0c-0.1,0.8 -0.2,1.6 -0.3,2.4c-0.7,0 -1.3,0 -2,0c0,0.1 0,0.2 0,0.3c0,1.8 0,3.6 0,5.4c0,0.1 0,0.2 0,0.3c-1,0.3 -1.8,0.3 -2.6,0.3z" class="st0" fill="#37B39C"/>
    </g>
   </g>
   <path id="svg_5" fill="#37B39C" d="m33.7,20.3c0,-4.3 0,-8.5 0,-12.7c0.10001,0 0.3,0 0.4,0c1.9,0 3.8,0 5.8,0.1c0.5,0 1,0.2 1.5,0.3c1.1,0.4 1.7,1.2 1.7,2.4c0.1,1.1 -0.3,2.1 -1.3,2.7c-0.10001,0.1 -0.3,0.2 -0.4,0.3c0.2,0.1 0.3,0.1 0.5,0.2c1.6,0.6 2.2,1.7 2.1,3.3c-0.1,1.8 -1.3,3 -3.1,3.4c-0.5,0.1 -1,0.2 -1.5,0.2c-1.8,0 -3.5,0 -5.3,0c-0.2,-0.2 -0.3,-0.2 -0.4,-0.2zm3.2,-2.4c0.1,0 0.1,0 0.2,0c0.5,0 1.1,0 1.6,0c0.3,0 0.60001,-0.1 0.8,-0.1c0.8,-0.3 1.2,-0.8 1.1,-1.7c-0.1,-0.7 -0.6,-1.2 -1.4,-1.2c-0.7,0 -1.3,0 -2,-0.1c-0.1,0 -0.2,0 -0.3,0.1c0,1 0,2 0,3zm0,-5.3c0.6,0 1.2,0 1.7,0c0.2,0 0.4,-0.1 0.6,-0.2c0.5,-0.3 0.60001,-0.7 0.5,-1.2c0,-0.5 -0.2,-0.9 -0.7,-1c-0.7,-0.2 -1.4,-0.1 -2.2,-0.2c0.1,0.8 0.1,1.7 0.1,2.6z" class="st0"/>
   <path id="svg_6" d="m66.9,7.7c1.9,0 3.8,0 5.8,0c0.2,0 0.4,0 0.60001,0.3c0,0.1 0.1,0.2 0.1,0.3c0,3.9 0,7.8 0,11.6c0,0.4 -0.2,0.6 -0.6,0.6c-3.9,0 -7.7,0 -11.60001,0c-0.39999,0 -0.6,-0.2 -0.6,-0.6c0,-3.9 0,-7.7 0,-11.6c0,-0.4 0.2,-0.6 0.6,-0.6c1.8,0 3.7,0 5.7,0zm5.1,11.5c0,-1.9 0,-3.8 0,-5.7c-0.5,0 -0.9,0 -1.4,0c0.4,2.4 -1.5,4.4 -3.7,4.4c-1.1,0 -2,-0.4 -2.7,-1.1c-0.89999,-0.9 -1.3,-2 -1.1,-3.3c-0.5,0 -0.9,0 -1.3,0c0,1.9 0,3.8 0,5.7c3.39999,0 6.7,0 10.2,0zm-5.2,-2.6c1.39999,0 2.6,-1.1 2.6,-2.5c0,-1.4 -1.1,-2.6 -2.5,-2.6c-1.4,0 -2.6,1.1 -2.6,2.5c0,1.5 1.1,2.6 2.5,2.6zm2.6,-7.6c0,0 0,0 0,0c0,0.9 0,1.6 0,2.4c0,0.1 0.1,0.1 0.2,0.1c0.8,0 1.5,0 2.3,0c0,0 0.1,0 0.1,0c0,-0.9 0,-1.7 0,-2.5c-0.9,0 -1.7,0 -2.6,0z" class="st1" fill="#37B39C"/>
  </g>
 </g></svg>
