<svg width="399.5" height="822" xmlns="http://www.w3.org/2000/svg"><title>Layer 1</title><g fill="#37B39C"><path d="M311.054 106.113c-.146-.44-.56-.738-1.02-.738h-30.855l-6.083-33.65c.79-.998 1.27-2.258 1.27-3.63 0-3.224-2.625-5.847-5.85-5.847-1.836 0-3.475.852-4.547 2.178l-16.563 1.982c.13-.13.262-.266.38-.414 1.657-2.05 1.263-5.014 1.245-5.14-.06-.42-.44-.722-.857-.692-.127.01-3.11.246-4.764 2.293-.26.32-.462.664-.63 1.016-.168-.35-.373-.694-.63-1.015-1.655-2.047-4.638-2.283-4.765-2.293-.424-.03-.8.273-.857.693-.018.125-.412 3.09 1.242 5.14 1.102 1.36 2.785 1.92 3.83 2.145.006.102.027.2.06.295l-8.09 31.39c-.01.04-.116.604-.21 1.097-.066.348-.125.658-.137.71-.01.04-.018.08-.02.124-.112.592-.17 1.193-.17 1.79 0 5.25 4.272 9.526 9.526 9.526s9.526-4.275 9.526-9.527c0-.98-.143-2.477-.44-3.387l-7.804-30.893 19.8 2.055c.86 1.297 2.224 2.23 3.81 2.523l.404 32.703c0 .057.014.115.023.172.02 1.74.397 9.568 5.487 14.775 2.428 2.482 5.543 3.973 9.287 4.45v43.466h2.154V126.1c.193.004.387.012.584.012.357 0 .703-.012 1.047-.025v43.322h2.153V125.9c10.982-1.462 14.473-10.317 15.73-13.763.825-.664 4.22-3.225 6.354-4.824.373-.276.525-.76.377-1.2zm-8.66 5.03c-1.996 5.502-5.93 12.816-17 12.816-4.377 0-7.9-1.335-10.475-3.962-4.636-4.73-4.878-12.275-4.886-13.42l.025.004-.026-.1v-.057c.002-.088-.01-.172-.027-.254l-.4-32.33c.56-.106 1.092-.294 1.584-.548l5.802 32.082h-2.768c-.297 0-.582.125-.785.342s-.31.508-.29.805c.293 4.522 3.176 13.07 12 13.07 8.47 0 11.52-8.415 11.55-8.5.196-.56-.1-1.175-.66-1.372-.562-.197-1.175.098-1.374.66-.023.07-2.557 7.06-9.516 7.06-7.35 0-9.244-7.067-9.71-9.91h31.362c-4.258 3.2-4.283 3.27-4.408 3.615zm-51.922-7.598c0 4.36-3.55 7.912-7.912 7.912s-7.912-3.55-7.912-7.912c0-.518.053-1.04.156-1.557.004-.02.006-.04.008-.06l.135-.706c.086-.453.186-.97.193-1.016l7.502-29.104 7.455 29.502c.244.753.375 2.076.375 2.94zm-9.58-40.074c.762.942.922 2.23.938 3.067-.813-.19-2.04-.617-2.8-1.56s-.923-2.228-.937-3.062c.812.19 2.045.622 2.8 1.556zm6.576-1.556c-.014.834-.176 2.123-.936 3.064-.762.94-1.986 1.37-2.8 1.557.017-.836.18-2.13.935-3.064.762-.94 1.988-1.368 2.8-1.556zm21.05 9.877c-2.04 0-3.696-1.657-3.696-3.694s1.656-3.693 3.695-3.693c2.037 0 3.695 1.656 3.695 3.693s-1.658 3.695-3.695 3.695z"/><circle r="1.068" cy="67.783" cx="268.073"/></g><g fill="#1D1D1B"><path d="M118.795 120.305c.37 0 .45.264.232.79-.2.54-.473.81-.813.81-.635 0-1.482.016-2.55.047-1.267.047-2.116.076-2.548.092.014 4.668.254 15.035.717 31.105.016.354-.184.68-.602.972-.415.293-.632.2-.647-.277-.465-16.348-.703-26.91-.72-31.684 0-.015.007-.046.024-.093-2.18.11-3.44-.076-3.78-.557-.2-.277-.122-.64.233-1.09.34-.447.617-.516.834-.207.2.277.927.402 2.18.37.372 0 .834-.022 1.39-.07.558-.03.874-.054.95-.07.434 0 1.282-.022 2.55-.067 1.068-.032 1.918-.056 2.55-.07zM130.478 139.982c.185 5.084-.58 8.877-2.296 11.38-.74 1.067-1.537 1.91-2.387 2.528-1.252.91-2.295 1.004-3.13.277-1.22-1.066-2.087-3.338-2.595-6.814-1.563-10.52-1.39-19.09.508-25.703.078-.232.21-.418.396-.557v-.023c2.332-2.04 4.334-1.64 6.003 1.205 1.02 1.746 1.845 4.258 2.478 7.533.56 2.936.836 4.402.836 4.402l.188 5.772zm-2.62 9.83c1.235-2.49 1.614-6.437 1.136-11.845-.326-3.6-.596-5.957-.813-7.07-1.575-7.94-3.753-10.877-6.536-8.807-1.45 5.3-1.645 12.662-.578 22.088.402 3.615.965 6.05 1.69 7.3.712 1.253 1.624 1.593 2.737 1.02.927-.478 1.716-1.375 2.364-2.687zM155.717 143.623c.154 3.027-.578 5.516-2.2 7.463-1.763 2.117-4.12 2.943-7.07 2.48l-.14-.046c-.355-.125-.58-.79-.672-1.994-.03-.37-.055-.818-.07-1.344v-.88c-.17-2.72-.285-6.173-.348-10.362-.014-.85-.045-1.992-.092-3.43-.078-.107-.078-.277 0-.51-.186-6.12-.078-10.654.324-13.605.03-.232.13-.447.3-.648.186-.2.387-.303.603-.303 1.978-.06 3.57.363 4.776 1.275 1.39 1.034 1.937 2.51 1.644 4.427-.432 2.844-2.016 5.424-4.752 7.74 2.07-.045 3.623.473 4.66 1.553 1.822 1.915 2.834 4.644 3.035 8.183zm-4.15-17.8c-.153-2.397-1.823-3.655-5.005-3.78-.294 2.643-.363 6.52-.21 11.635 3.648-2.518 5.386-5.137 5.216-7.856zm-4.403 26.144c3.092.447 5.23-.564 6.42-3.037 1.035-2.193 1.113-4.78.232-7.764-.742-2.535-1.66-4.143-2.758-4.822-1.158-.71-2.705-.98-4.635-.81.014.85.03 1.583.045 2.2.063 4.08.162 7.34.3 9.78.158 2.877.29 4.36.396 4.453zM166.658 151.502c.432-.076.578.148.44.672-.14.54-.388.852-.743.928-2.982.557-5.4.71-7.253.463-.218-.03-.333-.184-.35-.463-.323-11.744-.255-22.28.21-31.615.015-.277.1-.533.254-.764.186-.248.41-.38.672-.395.756-.06 2.89-.06 6.398 0 .37.016.447.287.23.81-.2.542-.478.814-.834.814-3.105-.047-4.938-.063-5.492-.047-.11 2.52-.162 6.365-.162 11.543.045 0 1.652-.094 4.82-.28.37-.028.447.226.23.767-.2.54-.478.818-.834.834-.217.015-.918.085-2.11.208-.864.094-1.567.13-2.106.115 0 1.236-.01 2.234-.023 2.99-.047 5.254-.063 8.523-.047 9.805 0 .047-.016.37-.047.973-.03.558-.038 1.02-.022 1.392.03 1.19.287 1.8.766 1.832 1.514.09 3.516-.102 6.004-.582zM182.326 120.283c2.672.045 4.635 1.08 5.887 3.105 1.096 1.775 1.537 4.086 1.32 6.93-.17 2.41-.748 4.42-1.738 6.025-1.158 1.87-2.78 2.982-4.867 3.338.107 5.58.17 10.022.186 13.33 0 .354-.2.68-.602.972-.418.293-.627.2-.627-.277-.016-3.463-.1-8.846-.254-16.156-.14-7.062-.218-12.44-.23-16.132 0-.264.083-.518.253-.766.185-.26.41-.384.673-.37zm.578 17.916c2.318-.233 3.924-1.58 4.823-4.034.74-2.055.87-4.328.392-6.814-.634-3.275-2.458-5.084-5.47-5.424.014 3.568.1 8.992.254 16.27zM200.543 152.197c.063.34-.102.695-.486 1.066-.402.387-.643.38-.72-.023-.323-1.637-.74-3.715-1.25-6.234-.743-3.6-1.167-5.678-1.275-6.234-.587.016-1.384.055-2.388.115-1.19.063-1.992.094-2.41.094-.434 5.022-.834 8.94-1.205 11.75-.064.403-.294.68-.696.835-.418.17-.588-.008-.51-.53.154-1.146.55-5.25 1.182-12.31-.016-.092-.008-.2.023-.324.153-1.622.308-3.058.462-4.31.402-3.246 1.122-8.137 2.156-14.672.03-.248.225-.51.578-.787.373-.294.58-.255.627.116.68 4.836 1.777 11.018 3.29 18.54.08.095.1.218.07.372.14.648.564 2.744 1.275 6.28.525 2.55.95 4.638 1.275 6.26zm-8.39-12.77c.54-.015 1.267-.046 2.177-.093 1.113-.06 1.84-.1 2.18-.115-1.098-5.44-1.947-10.09-2.55-13.954-.833 5.098-1.376 9.04-1.622 11.82-.047.525-.108 1.307-.186 2.34zM213.36 153.24c.434-.047.58.193.44.72-.138.54-.386.825-.74.856-1.608.186-2.58-.703-2.92-2.666-.124-.787-.14-2.988-.048-6.605.094-3.06-.154-5.26-.742-6.605-.834-1.977-2.494-2.89-4.982-2.734.123 8.344.186 13.72.186 16.13v.743c0 .37-.21.702-.625.997-.435.293-.65.2-.65-.28 0-2.655-.062-8.05-.185-16.177-.094-6.736-.11-12.13-.047-16.178 0-.264.084-.518.254-.766.2-.293.426-.424.672-.393 1.932.215 3.354.957 4.266 2.225.85 1.19 1.22 2.78 1.11 4.773-.122 2.165-.51 3.804-1.157 4.915-.34.588-1.127 1.398-2.363 2.434 3.615.263 5.484 2.866 5.607 7.81 0 .2-.06 1.053-.184 2.55-.11 1.515-.156 2.75-.14 3.708.062 3.184.09 4.775.09 4.775l2.157-.233zm-5.26-25.935c-.077-2.936-1.343-4.69-3.8-5.262-.03 3.508-.016 7.643.045 12.4.277-.277.64-.617 1.09-1.02.633-.557 1.004-.89 1.113-.996 1.096-1.003 1.613-2.712 1.553-5.122zM224.718 151.502c.432-.076.58.148.44.672-.14.54-.388.852-.743.928-2.98.557-5.398.71-7.254.463-.214-.03-.33-.184-.347-.463-.324-11.744-.254-22.28.21-31.615.015-.277.1-.533.255-.764.186-.248.408-.38.672-.395.756-.06 2.89-.06 6.396 0 .37.016.45.287.232.81-.2.542-.48.814-.834.814-3.107-.047-4.938-.063-5.494-.047-.107 2.52-.162 6.365-.162 11.543.047 0 1.652-.094 4.82-.28.37-.028.45.226.232.767-.2.54-.48.818-.834.834-.217.015-.92.085-2.11.208-.866.094-1.567.13-2.108.115 0 1.236-.01 2.234-.023 2.99-.047 5.254-.06 8.523-.047 9.805 0 .047-.014.37-.045.973-.03.558-.04 1.02-.023 1.392.03 1.19.285 1.8.766 1.832 1.512.09 3.513-.102 6.002-.582zM238.462 120.096c.295 8.84.766 19.787 1.414 32.844.016.293-.162.61-.533.95-.37.355-.61.333-.72-.07-1.02-3.692-2.556-8.39-4.61-14.09-2.75-7.665-4.404-12.34-4.96-14.024.216 10.678.556 19.756 1.02 27.234.014.37-.186.703-.604.996s-.642.2-.673-.277c-.51-8.36-.883-19.153-1.113-32.38 0-.295.178-.61.533-.95.355-.356.596-.333.72.07.987 3.306 2.532 7.85 4.636 13.628 2.3 6.365 3.877 10.893 4.73 13.582-.497-10.293-.86-19.23-1.09-26.818-.017-.37.183-.703.6-.996s.633-.194.65.3zM253.204 120.305c.37 0 .447.264.23.79-.2.54-.47.81-.813.81-.632 0-1.48.016-2.546.047-1.268.047-2.12.076-2.55.092.013 4.668.255 15.035.718 31.105.016.354-.186.68-.602.972-.418.293-.635.2-.65-.277-.463-16.348-.703-26.91-.72-31.684 0-.015.01-.046.024-.093-2.178.11-3.438-.076-3.777-.557-.2-.277-.125-.64.232-1.09.34-.447.616-.516.833-.207.2.277.928.402 2.178.37.372 0 .837-.022 1.392-.07.557-.03.873-.054.95-.07.433 0 1.284-.022 2.55-.067 1.068-.032 1.917-.056 2.552-.07zM264.907 121.115c.28.217.27.572-.02 1.066-.296.497-.58.636-.858.42-2.397-1.778-4.136-1.886-5.218-.325-.555.787-.912 1.73-1.066 2.828-.154 1.066-.1 2.07.164 3.014.633 2.146 2.04 4.303 4.217 6.465 2.102 2.086 3.57 3.855 4.404 5.31 1.253 2.163 1.7 4.388 1.345 6.675-.295 1.807-.857 3.46-1.69 4.96-1.146 2.054-2.497 2.942-4.058 2.665-1.45-.28-2.217-1.166-2.295-2.666-.045-1.236.31-2.494 1.066-3.777.264-.45.55-.59.857-.42.295.17.31.487.047.952-.957 1.592-1.074 2.797-.348 3.615.34.37.727.602 1.16.695.48.092.918.008 1.32-.256 1.19-.756 2.016-2.055 2.48-3.893.433-1.684.456-3.26.07-4.73-.495-1.868-1.67-3.792-3.522-5.77-2.566-2.72-4.072-4.426-4.52-5.123-1.02-1.576-1.662-3.205-1.924-4.89-.295-1.9-.033-3.616.787-5.145.865-1.64 1.97-2.604 3.314-2.896 1.36-.294 2.79.114 4.287 1.225z"/></g><g fill="#989899"><path d="M134.62 96.783h-.837V90.86h-3.848v5.923h-.835v-6.43h5.52v6.43zM140.94 94.496c0 .318-.058.623-.167.914-.11.29-.268.547-.473.768s-.453.395-.744.523-.617.194-.98.194c-.366 0-.698-.066-.997-.2-.296-.13-.548-.306-.753-.526s-.365-.477-.476-.768c-.115-.29-.172-.592-.172-.904 0-.318.057-.623.173-.914.11-.29.272-.547.477-.766.205-.22.457-.396.752-.53.298-.13.63-.196.997-.196.36 0 .688.066.98.197.29.133.538.31.743.53.205.218.36.474.473.765.11.29.166.596.166.914zm-.874 0c0-.428-.047-.775-.14-1.043-.09-.266-.21-.473-.356-.62s-.31-.245-.488-.298-.348-.078-.514-.078-.336.025-.514.078-.342.152-.492.3-.27.353-.367.618c-.093.268-.143.615-.143 1.043 0 .422.05.768.143 1.033.096.265.217.472.367.618.15.148.314.248.492.3.178.052.348.077.514.077s.336-.025.514-.078c.178-.05.342-.15.488-.3.146-.145.266-.353.357-.618s.14-.612.14-1.034zM146.816 96.416v1.332h-.643v-.965h-4.04v.965h-.646v-1.332h.662l1.718-4.225h.55l1.765 4.226h.633zm-4.234 0h2.775l-1.37-3.316h-.054l-1.35 3.316zM148.424 92.56v4.224h-.78v-4.592h3.013v.367h-2.233zM155.965 94.496c0 .318-.055.623-.166.914-.11.29-.27.547-.474.768s-.453.395-.744.523-.617.194-.98.194c-.366 0-.698-.066-.995-.2-.296-.13-.546-.306-.752-.526-.207-.22-.365-.477-.48-.768s-.17-.592-.17-.904c0-.318.058-.623.17-.914s.272-.547.48-.766c.206-.22.456-.396.752-.53.297-.13.63-.196.996-.196.36 0 .688.066.98.197.29.133.538.31.743.53.205.218.363.474.473.765.11.29.165.596.165.914zm-.873 0c0-.428-.045-.775-.14-1.043-.09-.266-.208-.473-.356-.62-.146-.145-.31-.245-.486-.298s-.35-.078-.514-.078c-.166 0-.338.025-.516.078s-.342.152-.49.3c-.15.145-.273.353-.367.618-.096.268-.145.615-.145 1.043 0 .422.05.768.145 1.033.094.265.217.472.367.618.148.148.313.248.49.3.178.052.35.077.516.077.164 0 .336-.025.514-.078.178-.05.34-.15.486-.3.148-.145.268-.353.357-.618.094-.266.14-.612.14-1.034zM158.445 92.56h-1.838v-.368h4.455v.367h-1.838v4.224h-.78V92.56zM166.463 94.496c0 .318-.055.623-.166.914s-.268.547-.473.768-.453.395-.744.523-.617.194-.978.194c-.368 0-.7-.066-.997-.2-.297-.13-.547-.306-.753-.526-.204-.22-.364-.477-.478-.768s-.17-.592-.17-.904c0-.318.057-.623.17-.914s.273-.547.478-.766c.206-.22.456-.396.753-.53.297-.13.63-.196.997-.196.36 0 .687.066.978.197.29.133.54.31.744.53.205.218.36.474.473.765s.166.596.166.914zm-.873 0c0-.428-.045-.775-.137-1.043-.092-.266-.21-.473-.36-.62-.145-.145-.308-.245-.485-.298s-.35-.078-.514-.078c-.166 0-.338.025-.516.078s-.342.152-.49.3c-.15.145-.273.353-.367.618-.095.268-.142.615-.142 1.043 0 .422.047.768.143 1.033.095.265.218.472.368.618.148.148.313.248.49.3.178.052.35.077.516.077.164 0 .336-.025.514-.078.178-.05.34-.15.486-.3.148-.145.268-.353.36-.618s.136-.612.136-1.034zM169.58 92.19c.332 0 .598.04.8.12.198.08.35.176.454.29.105.112.172.23.203.353s.045.227.045.313c0 .152-.027.29-.088.408-.06.12-.133.225-.23.313-.093.09-.202.16-.325.21-.122.054-.245.09-.368.116v.064c.13.006.27.027.428.064s.303.1.44.19c.136.09.25.21.34.362s.132.346.132.578c0 .154-.03.303-.092.445-.06.145-.158.273-.293.387-.134.113-.31.205-.523.275s-.47.105-.77.105h-2.077V92.19h1.923zm-.344 2.085c.14 0 .275-.02.404-.06.13-.04.242-.097.34-.175.098-.076.176-.168.234-.275s.088-.23.088-.37c0-.075-.012-.16-.033-.255-.022-.094-.067-.184-.134-.27-.068-.086-.164-.16-.29-.22s-.292-.093-.5-.093h-.91v1.717h.8zm.16 2.14c.063 0 .158-.003.29-.013.134-.01.265-.04.397-.098.133-.055.246-.14.346-.26.1-.12.147-.29.147-.512 0-.225-.05-.404-.152-.53-.102-.13-.223-.226-.364-.286s-.287-.098-.437-.11c-.15-.013-.275-.02-.373-.02h-.813v1.83h.96zM175.664 92.19h.58l-1.863 1.948 1.204 1.57c.06.08.13.16.205.242.077.084.155.16.24.23.08.07.163.127.24.17.082.043.157.064.23.064h.257v.367c-.078.026-.17.05-.273.075-.105.023-.213.037-.322.037-.123 0-.238-.02-.344-.064-.107-.043-.207-.102-.3-.176-.09-.072-.177-.156-.257-.248s-.155-.184-.23-.275l-1.137-1.497-.505.53v1.618h-.78v-4.59h.78v2.368l2.276-2.367zM179.365 92.09c.447 0 .795.063 1.04.188.245.127.423.29.538.492.113.2.178.436.197.697.018.264.027.533.027.81v2.507h-.744v-.45c-.18.17-.404.308-.68.41s-.55.15-.826.15c-.264 0-.496-.046-.7-.138-.2-.092-.37-.21-.503-.357-.137-.15-.237-.314-.303-.497-.067-.184-.1-.37-.1-.56 0-.198.036-.394.108-.59.074-.196.184-.372.33-.528.148-.156.328-.283.543-.38s.46-.147.735-.147.537.053.785.16c.25.107.45.26.61.455v-.395c0-.502-.075-.877-.226-1.12s-.426-.368-.826-.368c-.17 0-.32.02-.45.064-.13.043-.245.102-.347.18-.1.076-.194.17-.28.283s-.172.24-.258.383l-.47-.48c.085-.09.175-.183.27-.274.094-.092.21-.174.348-.248.14-.074.303-.133.492-.18.195-.045.424-.068.693-.068zm1.06 2.875c-.03-.074-.077-.158-.136-.258-.058-.098-.134-.193-.226-.285s-.203-.168-.332-.232c-.13-.064-.283-.098-.463-.098-.177 0-.34.035-.49.105-.145.07-.27.162-.372.275s-.18.248-.234.4-.084.313-.084.477c0 .196.037.366.107.51.07.144.16.267.27.368.11.1.235.176.37.225s.265.072.387.072c.117 0 .234-.02.354-.064.12-.04.236-.1.344-.177s.203-.168.29-.27.157-.218.212-.34v-.708zM188.91 92.19h.578l-1.863 1.948 1.203 1.57c.06.08.13.16.207.242.076.084.154.16.238.23.082.07.162.127.245.17.077.043.153.064.228.064h.258v.367c-.08.026-.174.05-.276.075-.104.023-.21.037-.32.037-.124 0-.24-.02-.345-.064-.11-.043-.207-.102-.3-.176-.09-.072-.177-.156-.257-.248-.078-.092-.156-.184-.23-.275l-1.138-1.497-.506.53v1.618h-.78v-4.59h.78v2.368l2.278-2.367zM194.137 92.19h.78v.745h.036c.227-.564.705-.846 1.434-.846.307 0 .588.056.846.17.256.112.48.274.666.485.185.21.33.465.435.758.104.295.156.625.156.992 0 .36-.052.69-.155.988s-.25.55-.436.758c-.19.208-.41.368-.667.48-.258.114-.54.173-.846.173-.146 0-.293-.016-.436-.047-.144-.03-.28-.08-.41-.146-.128-.068-.24-.156-.343-.268-.102-.11-.182-.244-.244-.404h-.035v3.05h-.78v-6.887zm.78 2.636c0 .252.036.475.106.672.07.195.162.36.28.5s.25.242.4.313c.155.07.317.106.49.106.188 0 .37-.035.542-.105.17-.07.322-.183.453-.34.133-.155.236-.356.313-.6.077-.247.116-.544.116-.892 0-.344-.04-.637-.115-.883-.075-.244-.18-.443-.306-.596-.13-.155-.28-.267-.455-.337s-.358-.105-.548-.105c-.178 0-.344.037-.5.115-.156.076-.293.18-.408.31-.117.134-.207.29-.27.47-.065.182-.097.373-.097.574v.8zM204.167 94.496c0 .318-.055.623-.166.914-.108.29-.267.547-.472.768s-.453.395-.744.523-.617.194-.98.194c-.366 0-.698-.066-.995-.2-.3-.13-.55-.306-.754-.526-.204-.22-.365-.477-.48-.768s-.17-.592-.17-.904c0-.318.058-.623.17-.914s.275-.547.48-.766c.205-.22.455-.396.753-.53.296-.13.628-.196.995-.196.36 0 .688.066.98.197.29.133.538.31.743.53.205.218.363.474.473.765.112.29.167.596.167.914zm-.873 0c0-.428-.047-.775-.137-1.043-.092-.266-.21-.473-.36-.62-.145-.145-.308-.245-.485-.298s-.35-.078-.514-.078c-.166 0-.338.025-.516.078s-.34.152-.49.3c-.15.145-.273.353-.368.618-.096.268-.143.615-.143 1.043 0 .422.048.768.144 1.033.095.265.217.472.368.618.15.148.313.248.49.3.178.052.35.077.516.077.164 0 .336-.025.514-.078.178-.05.34-.15.486-.3.148-.145.268-.353.36-.618.09-.266.136-.612.136-1.034zM210.046 96.416v1.332h-.645v-.965h-4.04v.965h-.643v-1.332h.662l1.716-4.225h.55l1.765 4.226h.636zm-4.234 0h2.773l-1.37-3.316h-.054l-1.348 3.316zM212.56 92.09c.447 0 .793.063 1.04.188.245.127.423.29.536.492s.18.436.2.697c.017.264.026.533.026.81v2.507h-.744v-.45c-.178.17-.404.308-.682.41-.273.1-.55.15-.824.15-.264 0-.496-.046-.7-.138-.2-.092-.368-.21-.503-.357-.136-.15-.237-.314-.306-.497-.066-.184-.1-.37-.1-.56 0-.198.037-.394.11-.59.07-.196.183-.372.33-.528.147-.156.327-.283.542-.38s.46-.147.734-.147.537.053.785.16.45.26.61.455v-.395c0-.502-.075-.877-.226-1.12s-.427-.368-.825-.368c-.172 0-.322.02-.453.064-.13.043-.244.102-.346.18-.102.076-.195.17-.28.283s-.173.24-.26.383l-.47-.48c.086-.09.176-.183.27-.274.095-.092.212-.174.35-.248.138-.074.302-.133.49-.18.196-.045.424-.068.694-.068zm1.058 2.875c-.03-.074-.076-.158-.135-.258-.06-.098-.133-.193-.225-.285-.094-.092-.203-.168-.332-.232s-.283-.098-.46-.098c-.18 0-.343.035-.49.105-.147.07-.272.162-.374.275s-.18.248-.234.4-.084.313-.084.477c0 .196.035.366.107.51.07.144.16.267.272.368.11.1.232.176.37.225.134.05.263.072.386.072.117 0 .234-.02.355-.064.12-.04.232-.1.34-.177s.205-.168.29-.27.157-.218.214-.34v-.708zM218.257 95.7h.045l1.598-3.51h.71v4.593h-.782v-3.63h-.04l-1.696 3.74h-.094l-1.816-3.74h-.037v3.63h-.313V92.19h.727l1.697 3.51zM91.12 105.912l-.808 1.893h-.422l2.72-6.43h.458l2.994 6.43h-.89l-.884-1.893H91.12zm1.534-3.508h-.037l-1.322 3.096h2.8l-1.44-3.096zM100.13 103.213h.58l-1.864 1.947 1.203 1.57c.06.08.128.16.206.244.074.082.156.158.238.23s.164.126.242.17c.08.042.157.063.23.063h.258v.367c-.08.025-.172.05-.275.074-.106.023-.214.037-.323.037-.123 0-.236-.02-.344-.064s-.207-.1-.3-.173c-.09-.074-.177-.156-.256-.25-.08-.092-.157-.184-.23-.275l-1.14-1.496-.505.533v1.614h-.78v-4.592h.78v2.37l2.28-2.37zM104.053 106.73l1.44-3.518h.452l-2.223 5.465c-.068.166-.14.332-.21.5-.077.168-.16.322-.26.46-.097.138-.21.25-.34.335s-.278.13-.448.13c-.123 0-.256-.026-.396-.075s-.27-.125-.385-.23l.404-.763c.056.123.133.217.232.28.1.065.206.097.317.097.115 0 .22-.042.307-.128.09-.086.162-.2.217-.34l.487-1.193-2.057-4.538h.836l1.588 3.518h.04zM106.863 103.213h.78v4.225h1.985v-4.225h.78v4.225h1.984v-4.225h.78v4.592h-6.31v-4.592zM115.248 105.71c0 .374.057.68.164.92.11.24.248.425.414.56.164.135.344.23.535.28.194.052.376.08.546.08.155 0 .293-.02.418-.052.125-.035.246-.082.36-.143s.23-.14.345-.23c.113-.092.23-.193.36-.303l.293.295c-.244.256-.533.453-.863.592-.33.136-.69.206-1.084.206-.404 0-.754-.07-1.05-.207-.298-.14-.543-.323-.735-.552-.192-.23-.337-.49-.43-.78-.097-.292-.144-.59-.144-.896 0-.37.055-.697.164-.988.11-.29.264-.54.46-.744.196-.205.425-.36.688-.47s.55-.16.863-.16c.296 0 .573.05.837.147s.494.246.693.44.357.444.473.745c.117.3.176.654.176 1.064v.193h-3.482zm2.674-.366c0-.594-.12-1.06-.36-1.4-.24-.34-.577-.51-1.01-.51-.224 0-.42.053-.583.16s-.3.25-.405.428c-.107.178-.186.38-.238.61-.05.23-.078.468-.078.712h2.672zM119.924 103.213h.78v.744h.038c.227-.564.703-.846 1.432-.846.307 0 .588.058.846.17s.48.276.666.487c.186.213.333.465.436.758.104.295.156.625.156.992 0 .36-.053.69-.156.988-.103.297-.25.55-.436.758-.188.207-.408.37-.666.482s-.54.17-.846.17c-.146 0-.293-.016-.436-.047-.145-.03-.28-.08-.41-.146-.127-.066-.242-.156-.344-.266-.1-.11-.182-.246-.242-.404h-.04v3.05h-.778v-6.89zm.78 2.637c0 .25.036.475.107.67.07.195.164.363.28.5.114.14.25.242.403.313.154.07.317.105.486.105.19 0 .37-.035.542-.105.172-.07.322-.184.454-.34s.235-.355.313-.602c.075-.243.112-.54.112-.89 0-.344-.037-.637-.113-.88-.08-.247-.18-.446-.31-.6-.13-.153-.28-.265-.455-.335-.174-.07-.355-.105-.547-.105-.176 0-.344.04-.5.115s-.293.18-.408.313c-.117.13-.207.287-.27.467-.065.182-.1.373-.1.574v.8h.003zM128.47 107.314c.212-.084.425-.213.64-.39l.266.347c-.21.16-.463.308-.768.442-.303.135-.656.203-1.06.203-.362 0-.687-.063-.974-.19-.29-.124-.535-.296-.74-.513s-.363-.475-.473-.77-.165-.618-.165-.96c0-.326.05-.63.152-.92.102-.287.252-.54.455-.752.2-.215.45-.385.744-.51.293-.127.633-.19 1.02-.19.184 0 .375.02.574.052s.385.096.56.184c.175.088.33.205.462.35.137.145.234.326.295.547h-.633c-.068-.215-.205-.396-.414-.543-.207-.146-.453-.22-.734-.22-.172 0-.354.034-.54.104-.192.07-.366.184-.52.34-.157.156-.288.365-.392.625s-.156.577-.156.95c0 .36.047.666.143.914s.224.447.382.598c.16.148.342.258.547.324.204.068.417.102.638.102.25 0 .482-.042.693-.124zM133.527 103.213h.578l-1.865 1.947 1.203 1.57c.063.08.13.16.207.244.077.082.156.158.238.23.084.07.164.126.244.17s.154.063.23.063h.257v.367c-.08.025-.173.05-.276.074-.105.023-.21.037-.322.037-.12 0-.236-.02-.344-.064s-.207-.1-.3-.173c-.09-.074-.177-.156-.257-.25l-.227-.275-1.14-1.496-.506.533v1.614h-.78v-4.592h.78v2.37l2.28-2.37zM140.02 105.518c0 .318-.055.623-.164.914-.11.29-.27.547-.475.768s-.452.395-.74.523c-.292.13-.62.193-.98.193-.367 0-.7-.066-.998-.197-.297-.134-.547-.31-.752-.53-.207-.22-.365-.477-.48-.768-.112-.29-.17-.592-.17-.904 0-.318.058-.623.17-.914.114-.29.272-.547.48-.766.205-.22.455-.396.752-.53.3-.13.63-.196.998-.196.36 0 .688.066.98.197.288.132.536.308.74.528.206.22.364.477.476.766.11.29.164.595.164.914zm-.872 0c0-.428-.046-.775-.14-1.043-.09-.266-.21-.473-.356-.62-.148-.145-.31-.245-.488-.298-.178-.05-.348-.078-.514-.078s-.336.026-.514.077c-.178.053-.342.152-.492.3s-.273.353-.367.618c-.096.268-.143.615-.143 1.043 0 .424.047.768.143 1.033.094.27.217.474.367.622.15.146.314.246.492.3.178.05.348.077.514.077s.336-.028.514-.08c.178-.052.34-.15.488-.298.146-.148.266-.354.357-.62.093-.267.138-.61.138-1.034zM141.812 105.71c0 .374.054.68.166.92.108.24.245.425.41.56.165.135.345.23.536.28.193.052.375.08.545.08.15 0 .292-.02.417-.052.125-.035.244-.082.36-.143.116-.06.23-.14.345-.23.11-.092.232-.193.36-.303l.294.295c-.244.256-.533.453-.863.592-.33.136-.69.206-1.084.206-.405 0-.755-.07-1.054-.207-.295-.14-.54-.323-.734-.552-.19-.23-.336-.49-.432-.78-.094-.292-.14-.59-.14-.896 0-.37.054-.697.163-.988.11-.29.264-.54.46-.744.196-.205.425-.36.688-.47s.552-.16.864-.16c.295 0 .572.05.836.147s.494.246.693.44.357.444.473.745c.117.3.176.654.176 1.064v.193h-3.48zm2.672-.366c0-.594-.12-1.06-.36-1.4s-.577-.51-1.01-.51c-.224 0-.42.053-.583.16s-.298.25-.405.428c-.105.178-.186.38-.236.61-.054.23-.078.468-.078.712h2.672zM152.7 107.314c.21-.084.423-.213.638-.39l.266.347c-.21.16-.463.308-.766.442-.305.135-.658.203-1.06.203-.364 0-.69-.063-.976-.19-.287-.124-.533-.296-.738-.513-.207-.217-.363-.475-.475-.77-.11-.298-.165-.618-.165-.96 0-.326.05-.63.15-.92.102-.287.252-.54.455-.752.2-.215.45-.385.744-.51.293-.127.633-.19 1.02-.19.184 0 .375.02.574.052s.385.096.56.184c.175.088.33.205.465.35.134.145.23.326.292.547h-.633c-.066-.215-.205-.396-.412-.543-.21-.146-.455-.22-.736-.22-.17 0-.352.034-.54.104s-.364.184-.52.34-.286.365-.392.625c-.104.26-.156.577-.156.95 0 .36.05.666.143.914.095.248.222.447.38.598.16.148.342.258.547.324.205.068.418.102.64.102.25 0 .48-.042.692-.124zM159.18 105.518c0 .318-.055.623-.166.914-.11.29-.268.547-.473.768s-.452.395-.743.523-.617.193-.98.193c-.366 0-.698-.066-.995-.197-.297-.134-.55-.31-.752-.53-.207-.22-.367-.477-.48-.768-.112-.29-.17-.592-.17-.904 0-.318.058-.623.17-.914.112-.29.272-.547.48-.766.203-.22.455-.396.752-.53.297-.13.63-.196.996-.196.36 0 .688.066.98.197.29.132.538.308.743.528.206.22.364.477.474.766.11.29.166.595.166.914zm-.873 0c0-.428-.045-.775-.137-1.043-.092-.266-.213-.473-.358-.62-.147-.145-.31-.245-.487-.298-.18-.05-.35-.078-.513-.078-.167 0-.34.026-.517.077-.178.053-.342.152-.49.3-.15.145-.273.353-.37.618-.093.268-.14.615-.14 1.043 0 .424.047.768.14 1.033.097.27.22.474.37.622.148.146.313.246.49.3.178.05.35.077.517.077.163 0 .333-.028.513-.08.178-.052.34-.15.487-.298.146-.148.267-.354.358-.62.092-.267.137-.61.137-1.034zM161.154 107.805h-.78v-4.592h3.7v4.592h-.78v-4.225h-2.14v4.225zM165.545 103.213h.78v.744h.036c.228-.564.706-.846 1.435-.846.308 0 .588.058.846.17.257.114.48.276.665.487.188.213.334.465.438.758.104.295.156.625.156.992 0 .36-.054.69-.157.988s-.25.55-.438.758c-.186.207-.408.37-.664.482-.257.113-.537.17-.845.17-.146 0-.293-.016-.438-.047-.143-.03-.28-.08-.408-.146s-.245-.156-.345-.266c-.102-.11-.182-.246-.244-.404h-.034v3.05h-.78v-6.89zm.78 2.637c0 .25.034.475.105.67.072.195.164.363.28.5.116.14.25.242.405.313.153.07.314.105.487.105.188 0 .37-.035.542-.105.17-.07.322-.184.453-.34.133-.156.236-.355.313-.602.076-.243.115-.54.115-.89 0-.344-.04-.637-.115-.88-.076-.247-.18-.446-.308-.6-.128-.153-.28-.265-.454-.335s-.357-.105-.546-.105c-.18 0-.345.04-.5.115-.157.076-.294.18-.41.313-.116.13-.206.287-.27.467-.064.182-.096.373-.096.574v.8zM175.574 105.518c0 .318-.055.623-.166.914-.11.29-.268.547-.473.768s-.453.395-.744.523-.616.193-.978.193c-.367 0-.7-.066-.996-.197-.297-.134-.547-.31-.752-.53-.207-.22-.365-.477-.48-.768-.112-.29-.17-.592-.17-.904 0-.318.058-.623.17-.914.114-.29.272-.547.48-.766.205-.22.455-.396.752-.53.297-.13.63-.196.996-.196.36 0 .688.066.98.197.29.132.538.308.743.528.205.22.363.477.473.766.112.29.166.595.166.914zm-.873 0c0-.428-.044-.775-.136-1.043-.092-.266-.212-.473-.36-.62-.145-.145-.31-.245-.485-.298-.18-.05-.35-.078-.517-.078-.164 0-.336.026-.514.077-.18.053-.343.152-.49.3-.15.145-.274.353-.37.618-.094.268-.14.615-.14 1.043 0 .424.046.768.14 1.033.096.27.22.474.37.622.147.146.312.246.49.3.177.05.35.077.513.077.166 0 .338-.028.516-.08.175-.052.34-.15.485-.298.147-.148.268-.354.36-.62.09-.267.136-.61.136-1.034zM178.693 103.213c.332 0 .596.04.795.12.2.08.354.175.457.288s.172.233.203.355c.03.123.045.227.045.313 0 .154-.03.29-.086.408-.06.12-.135.225-.23.313-.094.09-.203.16-.326.212-.12.05-.243.09-.366.113v.064c.13.005.27.026.428.063.157.037.3.1.44.188.136.09.25.212.34.364.09.154.134.346.134.58 0 .152-.03.3-.092.445-.063.142-.16.27-.295.384s-.312.205-.524.275c-.215.07-.47.104-.77.104h-2.076v-4.592h1.923zm-.345 2.084c.14 0 .275-.02.404-.06s.242-.097.34-.173c.098-.078.177-.17.234-.277.06-.105.086-.23.086-.37 0-.075-.01-.16-.03-.253-.022-.096-.065-.186-.134-.27s-.164-.16-.29-.222c-.124-.06-.292-.092-.5-.092h-.91v1.717h.8zm.16 2.14c.063 0 .158-.003.29-.013s.265-.04.397-.096c.133-.057.248-.143.346-.262.1-.12.15-.29.15-.51 0-.227-.052-.404-.153-.533s-.223-.223-.365-.285c-.14-.06-.287-.098-.438-.11s-.275-.02-.373-.02h-.812v1.83h.96zM186.2 105.518c0 .318-.056.623-.165.914s-.267.547-.473.768c-.205.22-.453.395-.744.523s-.617.193-.98.193c-.366 0-.698-.066-.995-.197-.297-.134-.55-.31-.754-.53s-.363-.477-.478-.768c-.113-.29-.17-.592-.17-.904 0-.318.057-.623.17-.914.114-.29.27-.547.477-.766.204-.22.456-.396.753-.53.297-.13.63-.196.996-.196.36 0 .687.066.978.197.29.132.54.308.744.528.206.22.363.477.473.766.11.29.166.595.166.914zm-.872 0c0-.428-.045-.775-.137-1.043-.09-.266-.212-.473-.358-.62s-.31-.245-.486-.298c-.178-.05-.35-.078-.516-.078s-.336.026-.514.077c-.178.053-.342.152-.49.3-.15.145-.273.353-.37.618-.093.268-.14.615-.14 1.043 0 .424.047.768.14 1.033.097.27.22.474.37.622.148.146.313.246.49.3.178.05.348.077.514.077s.338-.028.516-.08c.178-.052.34-.15.486-.298.146-.148.268-.354.36-.62.09-.267.136-.61.136-1.034zM190.15 105.582v-2.37h.78v2.37l2.23-2.37h.562l-1.81 1.948 1.157 1.598c.056.08.12.16.192.238.074.08.15.152.234.217.082.064.164.117.248.16.082.043.16.064.234.064h.256v.367c-.078.025-.17.05-.273.074-.104.023-.212.037-.32.037-.247 0-.46-.078-.646-.234-.182-.155-.346-.33-.484-.528l-1.084-1.496-.496.533v1.614h-.78v-1.615l-.497-.534-1.084 1.496c-.142.197-.303.373-.487.53-.184.155-.398.233-.643.233-.11 0-.22-.014-.322-.037-.104-.025-.195-.05-.275-.074v-.367h.26c.07 0 .146-.02.227-.064s.16-.096.244-.16c.082-.064.162-.137.238-.217.076-.078.14-.158.197-.238l1.157-1.598-1.81-1.947h.56l2.233 2.37zM199.84 107.438v1.332h-.643v-.965h-4.04v.965h-.644v-1.332h.66l1.72-4.225h.55l1.762 4.225h.635zm-4.235 0h2.775l-1.37-3.316h-.056l-1.35 3.316zM201.265 105.71c0 .374.055.68.164.92.108.24.247.425.413.56.164.135.342.23.535.28.19.052.373.08.545.08.152 0 .29-.02.416-.052.124-.035.245-.082.36-.143.117-.06.232-.14.344-.23.113-.092.234-.193.36-.303l.296.295c-.246.256-.533.453-.863.592-.332.136-.693.206-1.084.206-.404 0-.756-.07-1.053-.207-.297-.14-.54-.323-.734-.552-.193-.23-.337-.49-.433-.78s-.143-.59-.143-.896c0-.37.055-.697.166-.988.11-.29.265-.54.46-.744s.426-.36.688-.47c.264-.106.553-.16.865-.16.292 0 .57.05.835.147.262.098.494.246.693.44.197.196.355.444.473.745.116.3.175.654.175 1.064v.193h-3.48zm2.672-.366c0-.594-.12-1.06-.36-1.4s-.575-.51-1.007-.51c-.225 0-.42.053-.584.16s-.3.25-.406.428c-.105.178-.186.38-.236.61-.053.23-.078.468-.078.712h2.67zM206.72 107.805h-.78v-4.592h.78v2.084h2.324v-2.084h.78v4.592h-.78v-2.195h-2.324v2.195zM214.415 103.213h.92v4.592h-.78v-4.02l-2.34 4.02h-.92v-4.592h.78v4.05l2.34-4.05zM217.4 105.71c0 .374.056.68.167.92.11.24.246.425.41.56.166.135.346.23.537.28.19.052.375.08.545.08.15 0 .29-.02.417-.052.125-.035.244-.082.36-.143.116-.06.23-.14.345-.23s.232-.193.36-.303l.294.295c-.244.256-.533.453-.863.592-.33.136-.69.206-1.084.206-.405 0-.755-.07-1.052-.207-.297-.14-.543-.323-.736-.552-.19-.23-.336-.49-.432-.78-.094-.292-.14-.59-.14-.896 0-.37.054-.697.163-.988.11-.29.262-.54.46-.744s.425-.36.688-.47.552-.16.862-.16c.297 0 .574.05.838.147s.494.246.693.44.357.444.473.745c.117.3.176.654.176 1.064v.193h-3.48zm2.675-.366c0-.594-.12-1.06-.36-1.4s-.577-.51-1.01-.51c-.224 0-.42.053-.583.16s-.3.25-.404.428c-.107.178-.188.38-.24.61-.05.23-.076.468-.076.712h2.673z"/></g><g fill="#C6C6C6"><path d="M127.287 428.44c1.8-.94 7.093-3.16 7.093-7.107 0-2.436-1.588-4.41-3.546-4.41-1.96 0-3.547 1.394-3.547 3.828"/><path d="M127.342 428.44c-1.8-.94-7.094-3.16-7.094-7.107 0-2.436 1.588-4.41 3.547-4.41s3.547 1.394 3.547 3.828"/></g><path d="M175.707 416.923c-3.772 0-6.83 2.57-6.83 5.738 0 1.222.457 2.35 1.23 3.28l-.208.514-.782 1.945 1.944-.784.695-.28c1.115.667 2.477 1.064 3.95 1.064 3.77 0 6.83-2.57 6.83-5.738s-3.058-5.74-6.83-5.74z" fill="#C6C6C6"/><g fill="#C6C6C6"><path d="M219.755 416.923c-4.812 0-8.714 5.756-8.714 5.756s3.903 5.753 8.715 5.753c4.814 0 8.716-5.754 8.716-5.754s-3.9-5.757-8.715-5.757zm0 9.702c-2.18 0-3.945-1.768-3.945-3.946 0-2.18 1.767-3.947 3.945-3.947 2.18 0 3.947 1.767 3.947 3.946 0 2.177-1.767 3.945-3.947 3.945z"/><circle r="1.644" cy="422.678" cx="219.755"/></g><g fill="#C6C6C6" clip-rule="evenodd" fill-rule="evenodd"><path d="M268.067 424.59c0-.395-.005-.792 0-1.188.01-.706-.01-1.416.046-2.12.11-1.366 1.252-2.57 2.613-2.803.25-.045.504-.064.758-.065 1.67-.007 3.34-.004 5.008-.004h.438v-1.75l.077-.034c.993.913 1.986 1.827 3.006 2.763l-3.055 2.808v-1.806c-.142-.008-.246-.02-.353-.02h-5.24c-.77.003-1.335.568-1.346 1.34-.007.332-.002.663-.002 1.028l-1.95 1.85z"/><path d="M268.804 425.635l3.057-2.81v1.803c.143.01.248.02.355.02 1.747.002 3.494.004 5.24 0 .768 0 1.333-.567 1.344-1.34.004-.332 0-.663 0-1.027.64-.605 1.287-1.22 1.934-1.83.003.055.017.148.017.244.002.85.006 1.703 0 2.554-.01 1.938-1.444 3.362-3.385 3.364h-5.48v1.752l-.074.03c-.99-.907-1.976-1.813-3.006-2.76z"/></g><text font-size="11.306" font-family="'Helvetica-Regular'" fill="#C6C6C6" transform="translate(139.353 427.03)">12</text><text font-size="11.306" font-family="'Helvetica-Regular'" fill="#C6C6C6" transform="translate(233.1 427.03)">1200</text><text font-size="11.306" font-family="'Helvetica-Regular'" fill="#C6C6C6" transform="translate(187.405 427.03)">3</text><g fill="#9D9D9C"><path d="M191.25 483.57l3.25-3.304 3.25-3.302v13.207l-3.25-3.3"/><path d="M196.25 481.07c10.154 0 13.5 7.31 13.5 7.31s-4.406-3.374-13.5-3.374v-3.937z"/></g><path d="M197.112 542.566c-.395 1.12-.782 2.23-1.178 3.355.397.032.797 0 1.204.02V548h-8.132v-2.06h1.55c.082-.185.168-.353.23-.528.118-.326.243-.65.37-.975.164-.433.34-.862.508-1.292.133-.34.27-.678.41-1.016.116-.28.222-.563.334-.844.092-.232.194-.46.278-.693.167-.46.357-.912.538-1.367.122-.307.242-.613.36-.92.162-.434.34-.86.51-1.293.125-.32.258-.643.39-.965.125-.303.263-.604.356-.922.067-.23.195-.44.276-.664.164-.46.372-.906.53-1.37.087-.25.208-.49.315-.745.09.124.197.24.255.376.156.355.372.676.562 1.01.19.336.367.68.584 1.002.126.184.193.406.315.592.218.33.38.695.604 1.02.1.147.167.317.254.474.19.344.39.684.58 1.03.23.405.46.813.696 1.212.192.316.346.656.57.95.042.056.056.132.087.208.12-.047.15-.16.2-.244l.69-1.19c.187-.333.373-.67.564-1.007.19-.336.368-.68.585-1.002.123-.183.193-.403.314-.59.218-.33.38-.694.606-1.02.1-.146.166-.316.25-.473.19-.346.39-.688.584-1.03.242-.42.49-.835.72-1.263.01-.016.028-.027.06-.06.088.206.178.4.256.6.123.315.234.634.36.95.17.43.356.854.51 1.29.08.228.208.437.28.663.107.322.264.625.36.95.065.23.198.44.274.665.162.465.36.912.533 1.37.123.313.254.628.387.938.135.31.238.633.36.95.083.214.16.435.26.642.11.234.204.477.294.717.086.23.227.448.254.702.256.473.398.992.605 1.484.176.416.357.834.496 1.268.03.102.114.18.118.3.002.056.064.112.148.1.055-.007.115 0 .172 0h1.28v2.075h-8.128v-2.06c-.006.006 0-.002.01-.008l.016-.008c.39-.002.775-.002 1.19-.002-.4-1.13-.792-2.242-1.185-3.357l-.505.846-.53.878c-.18.293-.355.586-.532.88-.148.237-.3.472-.438.714-.176.305-.38.59-.547.9-.15.275-.328.537-.495.807-.108.175-.218.35-.332.53h-.015c-.01 0-.024.004-.024.004-1.085-1.854-2.243-3.656-3.327-5.504-.004-.015-.013-.03-.03-.064z" fill="#37B39C" clip-rule="evenodd" fill-rule="evenodd"/><g font-size="37.46" font-family="'DINPro-Regular'" fill="#878787"><text transform="translate(167.997 617.076)">“</text><text transform="rotate(180 116.5 306.53)">“</text></g><g><path fill="#EBEBEB" d="M184.802 706.558h41.125v30.395h-41.125z"/><path d="M198.724 714.985v3.217h-3.217v-3.217h3.217m1.5-1.5h-6.217v6.217h6.217v-6.217zM194.007 722.65h22.715v1.435h-22.715zM194.007 727.272h22.715v1.436h-22.715zM203.57 718.27h13.15v1.433h-13.15zM203.57 713.485h13.15v1.434h-13.15z" fill="#BBB"/><path fill="#4DCEB5" d="M214.927 685.43h-30.125v19.128h41.125v-8.127"/><g><path fill="#37B39C" d="M214.927 696.43h11l-11-11"/></g><g fill="#FFF"><path d="M196.62 695.74h-1.38v2.205h-.918v-5.605h2.3c1.183 0 1.94.724 1.94 1.7s-.757 1.7-1.94 1.7zm-.05-2.636h-1.33v1.865h1.33c.64 0 1.072-.34 1.072-.93s-.433-.936-1.072-.936zM203.457 697.418c-.384.354-.937.527-1.566.527h-2.128v-5.605h2.13c.63 0 1.182.173 1.565.527.655.605.613 1.425.613 2.235 0 .812.042 1.71-.613 2.316zm-.63-3.937c-.256-.26-.597-.377-1.03-.377h-1.116v4.078h1.117c.434 0 .774-.117 1.03-.377.314-.323.323-.93.323-1.7 0-.772-.008-1.3-.323-1.622zM206.435 693.104v1.708h2.52v.764h-2.52v2.37h-.92v-5.605h3.875v.765h-2.955z"/></g></g><g><circle r="21.5" cy="226.76" cx="229.012" fill="#fff"/><circle r="13.5" cy="226.76" cx="229.012" stroke-miterlimit="10" stroke="#37B39C" fill="none"/><path d="M228.73 221.438l4.354 4.352c.227.227.352.53.352.852 0 .318-.125.623-.352.847l-4.182 4.182-1.697-1.7 3.332-3.33-3.504-3.503 1.697-1.702z" fill="#37B39C"/><g><circle r="21.5" cy="226.76" cx="171.988" fill="#fff"/><circle r="13.5" cy="226.76" cx="171.988" stroke-miterlimit="10" stroke="#37B39C" fill="none"/><path d="M172.27 232.082l-4.355-4.352c-.227-.227-.352-.532-.352-.852 0-.318.125-.623.352-.85l4.182-4.18 1.7 1.7-3.333 3.33 3.502 3.503-1.697 1.702z" fill="#37B39C"/></g></g><g><path d="M199.862 372.925c-2.773 0-5.03-2.256-5.03-5.028s2.257-5.028 5.03-5.028 5.03 2.255 5.03 5.027-2.257 5.028-5.03 5.028zm0-8.715c-2.033 0-3.688 1.653-3.688 3.687s1.654 3.688 3.688 3.688c2.033 0 3.687-1.654 3.687-3.688s-1.655-3.687-3.688-3.687z" fill="#B2B2B2"/><path fill="#B2B2B2" d="M203.32 370.4l2.85 2.85-.948.95-2.85-2.85z"/></g><g><g fill="#37B39C" clip-rule="evenodd" fill-rule="evenodd"><path d="M152.972 308c-.007-.1-.02-.205-.02-.307-.003-1.96-.003-3.92-.003-5.878v-.34h-2.218v-2.603h2.2c.01-.126.017-.22.017-.31 0-.644-.03-1.286.01-1.925.077-1.21.562-2.204 1.726-2.713.402-.176.862-.27 1.303-.29.683-.036 1.366.02 2.05.04.06.002.117.02.19.035v2.347c-.112 0-.224-.002-.33 0-.478.017-.954.02-1.427.054-.492.03-.8.32-.822.807-.026.635-.005 1.273-.005 1.95h2.512c-.115.884-.225 1.726-.336 2.596h-2.196c-.01.126-.025.228-.025.323v5.906c0 .102-.017.206-.024.307h-2.604zM177.16 305.82c1.712.132 3.25-.293 4.69-1.33-1.46-.19-2.45-.904-2.965-2.276.47-.016.9.058 1.363-.08-1.014-.282-1.736-.862-2.184-1.766-.22-.438-.342-.91-.31-1.446.438.153.835.355 1.335.352-1.38-1.224-1.67-2.635-.882-4.273 1.77 2.02 3.953 3.17 6.654 3.355-.21-1.603.297-2.853 1.717-3.596 1.417-.748 2.726-.42 3.895.626.71-.122 1.355-.406 2.004-.72-.19.716-.646 1.237-1.208 1.688.568-.044 1.096-.23 1.652-.4-.03.055-.063.11-.1.163-.348.48-.74.922-1.22 1.275-.198.146-.253.316-.253.55.01 2.013-.59 3.845-1.74 5.487-1.515 2.16-3.6 3.41-6.218 3.756-2.12.277-4.12-.11-5.977-1.194-.086-.053-.17-.112-.256-.17zM236.442 296.647V293.9c3.26.055 6.176 1.048 8.68 3.11 3.354 2.76 5.014 6.355 5.146 10.7h-2.754c-.066-3.024-1.104-5.66-3.252-7.807-2.148-2.153-4.78-3.198-7.82-3.256z"/><path d="M245.59 307.716h-2.624c-.414-3.948-2.578-6.116-6.527-6.524v-2.626c2.386.047 4.472.843 6.206 2.462 1.92 1.793 2.882 4.037 2.945 6.688z"/><path d="M240.2 305.844c0 1.025-.865 1.883-1.903 1.88-.997 0-1.875-.893-1.872-1.902.004-1 .895-1.873 1.904-1.87 1.013.002 1.87.87 1.87 1.892z"/><g><path d="M213.044 299.76h4.64c1.458 0 2.75 1.092 2.99 2.538.03.18.05.362.05.546.004 1.188.002 2.374.002 3.56 0 1.514-1.06 2.783-2.55 3.05-.185.034-.38.047-.573.047-3.037.005-6.076.005-9.117.003-1.512 0-2.76-1.018-3.06-2.492-.04-.183-.056-.372-.056-.56-.006-1.193-.006-2.39-.006-3.585.004-1.432.93-2.646 2.318-3.006.234-.06.48-.096.72-.096 1.548-.008 3.095-.005 4.642-.005zm1.45 7.704c.02-.016.048-.03.067-.046.02.036.028.088.058.114.094.077.188.168.297.224.426.205.977.13 1.156-.38.048-.134.08-.284.083-.424.006-.993.008-1.98-.004-2.97-.003-.166-.042-.344-.1-.5-.15-.4-.51-.583-.92-.485-.21.048-.375.175-.522.328-.027.03-.057.055-.113.104v-2.093h-.855v6.446h.855v-.32zm4.94-1.958c0-.522.034-1.024-.012-1.52-.073-.826-.7-1.176-1.464-1.05-.668.11-1.082.632-1.086 1.31-.002.763-.002 1.525 0 2.287 0 .11.014.22.03.326.08.546.43.933.954 1.032.168.035.35.033.523.016.43-.042.77-.24.933-.658.07-.183.108-.386.13-.583.024-.18.01-.364.01-.542h-.868c-.006.197-.014.385-.023.573-.015.23-.086.352-.242.4-.307.093-.535-.062-.55-.39-.017-.367-.015-.732-.017-1.095 0-.033.01-.064.02-.108h1.66zm-7.566-2.46V306.54c0 .052 0 .126-.03.154-.126.11-.255.23-.4.31-.175.088-.315-.004-.353-.195-.012-.065-.012-.132-.012-.197v-3.41-.152h-.85v3.988c0 .078.002.16.012.237.04.453.363.677.8.563.28-.072.505-.24.7-.447l.14-.124v.52h.85v-4.738c-.287-.003-.56-.003-.857-.003zm-2.7 4.74v-5.553h1.017v-.894h-3.016v.9h1.024v5.546h.975zM210.66 298.637h-1.034c-.002-.06-.008-.115-.008-.168-.002-.626-.012-1.25.002-1.87.01-.373-.05-.723-.158-1.074-.34-1.084-.668-2.174-1-3.262-.012-.04-.02-.086-.035-.143h1.04c.216.863.433 1.72.647 2.58h.04l.62-2.58h1.047c-.01.056-.02.1-.034.142-.36 1.178-.725 2.355-1.084 3.536-.025.088-.04.182-.04.27-.003.797-.003 1.593-.003 2.392v.177zM211.75 296.19v-1.253c0-.636.337-1.066.96-1.2.462-.1.9-.048 1.27.286.244.22.377.502.38.832.005.9.005 1.803 0 2.705-.003.687-.517 1.19-1.202 1.207-.402.013-.773-.066-1.064-.372-.227-.24-.334-.53-.338-.858-.01-.445-.005-.894-.005-1.346zm1.672.028c0-.447.003-.896-.005-1.345-.002-.2-.158-.314-.39-.306-.194.005-.325.137-.33.324V297.53c0 .23.126.364.34.368.245.005.38-.124.385-.388.003-.43 0-.86 0-1.292zM216.74 293.822h.798c.04 0 .074.004.12.007v4.804h-.91v-.466c-.132.112-.23.21-.34.296-.214.16-.446.266-.724.254-.234-.013-.412-.12-.496-.34-.05-.118-.088-.25-.088-.378-.004-1.357-.002-2.715-.002-4.072 0-.028.002-.057.008-.095h.9c.004.063.012.117.012.176v3.432c0 .063-.004.127.006.186.022.157.137.225.285.175.175-.06.304-.185.43-.33v-3.65z"/><path d="M214.497 305.406c0-.447.008-.895-.002-1.343-.006-.164.07-.247.2-.31.27-.134.538.006.57.31.01.1.015.198.015.3.002.732.002 1.468 0 2.202 0 .095-.006.193-.018.286-.02.208-.18.32-.382.283-.07-.014-.144-.046-.21-.08-.125-.065-.182-.158-.176-.313.01-.442.003-.888.003-1.334zM218.554 304.798h-.78c-.01-.036-.02-.066-.02-.098 0-.203 0-.405.015-.604.017-.245.15-.37.38-.378.215-.013.373.102.397.332.026.242.007.49.007.748z"/></g></g></g><g><g fill="#fff"><path d="M128.287 448.44c1.8-.94 7.093-3.16 7.093-7.107 0-2.436-1.588-4.41-3.546-4.41-1.96 0-3.547 1.394-3.547 3.828"/><path d="M128.342 448.44c-1.8-.94-7.094-3.16-7.094-7.107 0-2.436 1.588-4.41 3.547-4.41s3.547 1.394 3.547 3.828"/></g><path d="M176.707 436.923c-3.772 0-6.83 2.57-6.83 5.738 0 1.222.457 2.35 1.23 3.28l-.208.514-.782 1.945 1.944-.784.695-.28c1.115.667 2.477 1.064 3.95 1.064 3.77 0 6.83-2.57 6.83-5.738s-3.058-5.74-6.83-5.74z" fill="#fff"/><g fill="#fff"><path d="M220.755 436.923c-4.812 0-8.714 5.756-8.714 5.756s3.903 5.753 8.715 5.753c4.814 0 8.716-5.754 8.716-5.754s-3.9-5.757-8.715-5.757zm0 9.702c-2.18 0-3.945-1.768-3.945-3.946 0-2.18 1.767-3.947 3.945-3.947 2.18 0 3.947 1.767 3.947 3.946 0 2.177-1.767 3.945-3.947 3.945z"/><circle r="1.644" cy="442.678" cx="220.755"/></g><g fill="#fff" clip-rule="evenodd" fill-rule="evenodd"><path d="M269.067 444.59c0-.395-.005-.792 0-1.188.01-.706-.01-1.416.046-2.12.11-1.366 1.252-2.57 2.613-2.803.25-.045.504-.064.758-.065 1.67-.007 3.34-.004 5.008-.004h.438v-1.75l.077-.034c.993.913 1.986 1.827 3.006 2.763l-3.055 2.808v-1.806c-.142-.008-.246-.02-.353-.02h-5.24c-.77.003-1.335.568-1.346 1.34-.007.332-.002.663-.002 1.028l-1.95 1.85z"/><path d="M269.804 445.635l3.057-2.81v1.803c.143.01.248.02.355.02 1.747.002 3.494.004 5.24 0 .768 0 1.333-.567 1.344-1.34.004-.332 0-.663 0-1.027.64-.605 1.287-1.22 1.934-1.83.003.055.017.148.017.244.002.85.006 1.703 0 2.554-.01 1.938-1.444 3.362-3.385 3.364h-5.48v1.752l-.074.03c-.99-.907-1.976-1.813-3.006-2.76z"/></g><text x="1" y="20" font-size="11.306" font-family="'Helvetica-Regular'" fill="#C6C6C6" transform="translate(139.353 427.03)">12</text><text x="1" y="20" font-size="11.306" font-family="'Helvetica-Regular'" fill="#C6C6C6" transform="translate(233.1 427.03)">1200</text><text x="1" y="20" font-size="11.306" font-family="'Helvetica-Regular'" fill="#C6C6C6" transform="translate(187.405 427.03)">3</text><g fill="#fff"><path d="M56.552 405.716c3.596-1.873 14.163-6.308 14.163-14.19 0-4.864-3.17-8.806-7.08-8.806-3.912 0-7.083 2.784-7.083 7.644"/><path d="M56.662 405.716c-3.595-1.873-14.166-6.308-14.166-14.19 0-4.864 3.17-8.806 7.083-8.806s7.082 2.784 7.082 7.644"/></g><path d="M153.238 382.72c-7.532 0-13.638 5.13-13.638 11.458 0 2.438.913 4.692 2.454 6.55l-.413 1.024-1.56 3.884 3.883-1.564 1.388-.557c2.227 1.33 4.947 2.123 7.886 2.123 7.532 0 13.64-5.13 13.64-11.458s-6.105-11.46-13.638-11.46z" fill="#fff"/><g fill="#fff"><path d="M241.195 382.72c-9.61 0-17.4 11.494-17.4 11.494s7.79 11.49 17.4 11.49c9.613 0 17.404-11.49 17.404-11.49s-7.792-11.494-17.405-11.494zm0 19.373c-4.35 0-7.877-3.53-7.877-7.88 0-4.352 3.528-7.88 7.877-7.88 4.353 0 7.882 3.53 7.882 7.88s-3.53 7.88-7.882 7.88z"/><circle r="3.283" cy="394.212" cx="241.195"/></g><g fill="#fff" clip-rule="evenodd" fill-rule="evenodd"><path d="M337.666 398.032c0-.79-.01-1.584.002-2.374.02-1.41-.022-2.828.09-4.232.218-2.73 2.5-5.136 5.218-5.6.497-.087 1.006-.125 1.513-.127 3.334-.015 6.667-.01 10-.01h.874v-3.493c.052-.026.102-.048.154-.07 1.983 1.823 3.966 3.648 6.003 5.517l-6.1 5.61v-3.607c-.283-.016-.49-.038-.705-.038-3.488 0-6.975-.005-10.465 0-1.534.003-2.664 1.13-2.686 2.675-.012.66-.002 1.322-.002 2.05l-3.896 3.697z"/><path d="M339.138 400.116l6.104-5.613v3.603c.284.018.493.042.707.042 3.487.002 6.976.006 10.462 0 1.534-.002 2.662-1.135 2.684-2.68.01-.66 0-1.322 0-2.05 1.28-1.21 2.572-2.435 3.864-3.657.006.113.034.298.034.49.002 1.7.01 3.4 0 5.1-.022 3.87-2.885 6.713-6.76 6.717H345.29v3.5l-.15.06c-1.977-1.812-3.947-3.622-6.004-5.51z"/></g><text x="-44.606" y="-25.372" font-size="11.306" font-family="'Helvetica-Regular'" fill="#C6C6C6" transform="matrix(1.99684 0 0 1.99684 169.717 453.564)">12</text><text x="-44.606" y="-25.372" font-size="11.306" font-family="'Helvetica-Regular'" fill="#C6C6C6" transform="matrix(1.99684 0 0 1.99684 356.915 453.564)">1200</text><text x="-44.606" y="-25.372" font-size="11.306" font-family="'Helvetica-Regular'" fill="#C6C6C6" transform="matrix(1.99684 0 0 1.99684 265.67 453.564)">3</text></g></svg>