<svg width="104.5" height="32" xmlns="http://www.w3.org/2000/svg">.st0{fill-rule:evenodd;clip-rule:evenodd;fill:#fff;} .st1{fill:#fff;}<title>Layer 1</title><path d="M9.3 20.5v-6h-2v-2.4h2V10c.1-1.1.5-2 1.6-2.5.4-.2.8-.2 1.2-.3h2.1v2.1h-1.6c-.4 0-.7.3-.7.7v1.8h2.3l-.3 2.4h-2v6c-1 .3-1.8.3-2.6.3zm24.4-.2V7.6h.4c1.9 0 3.8 0 5.8.1.5 0 1 .2 1.5.3 1.1.4 1.7 1.2 1.7 2.4.1 1.1-.3 2.1-1.3 2.7-.1.1-.3.2-.4.3.2.1.3.1.5.2 1.6.6 2.2 1.7 2.1 3.3-.1 1.8-1.3 3-3.1 3.4-.5.1-1 .2-1.5.2h-5.3c-.2-.2-.3-.2-.4-.2zm3.2-2.4h1.8c.3 0 .6-.1.8-.1.8-.3 1.2-.8 1.1-1.7-.1-.7-.6-1.2-1.4-1.2-.7 0-1.3 0-2-.1-.1 0-.2 0-.3.1v3zm0-5.3h1.7c.2 0 .4-.1.6-.2.5-.3.6-.7.5-1.2 0-.5-.2-.9-.7-1-.7-.2-1.4-.1-2.2-.2.1.8.1 1.7.1 2.6z" class="st0" fill="#37B39C"/><path d="M66.9 7.7h5.8c.2 0 .4 0 .6.3 0 .1.1.2.1.3v11.6c0 .4-.2.6-.6.6H61.2c-.4 0-.6-.2-.6-.6V8.3c0-.4.2-.6.6-.6h5.7zM72 19.2v-5.7h-1.4c.4 2.4-1.5 4.4-3.7 4.4-1.1 0-2-.4-2.7-1.1-.9-.9-1.3-2-1.1-3.3h-1.3v5.7H72zm-5.2-2.6c1.4 0 2.6-1.1 2.6-2.5s-1.1-2.6-2.5-2.6-2.6 1.1-2.6 2.5c0 1.5 1.1 2.6 2.5 2.6zM69.4 9v2.4c0 .1.1.1.2.1H72V9h-2.6z" class="st1" fill="#37B39C"/></svg>