<svg xmlns="http://www.w3.org/2000/svg" width="272" height="548" viewBox="0 0 272 548"><path fill="#FFF" d="M157.55 93.247c0 1.1-.9 2-2 2h-9.49c-1.1 0-2.638.637-3.415 1.414l-4.847 4.848c-.778.777-2.05.777-2.828 0l-4.846-4.847c-.778-.776-2.314-1.413-3.414-1.413h-10.26c-1.1 0-2-.9-2-2V60.235c0-1.1.9-2 2-2h39.1c1.1 0 2 .9 2 2v33.012z"/><text transform="translate(127.07 87.374)" fill="#37B39C" font-family="'Helvetica-Bold'" font-size="31.549">3</text><path fill="#37B39C" d="M157.55 182.745c0 1.1-.9 2-2 2h-9.49c-1.1 0-2.638.637-3.415 1.414l-4.847 4.846c-.778.777-2.05.777-2.828 0l-4.846-4.847c-.778-.778-2.314-1.415-3.414-1.415h-10.26c-1.1 0-2-.9-2-2v-33.012c0-1.1.9-2 2-2h39.1c1.1 0 2 .9 2 2v33.012z"/><text transform="translate(127.07 176.872)" fill="#FFF" font-family="'Helvetica-Bold'" font-size="31.549">4</text><path fill="#37B39C" d="M136.363 295.692c-.876 0-1.698-.34-2.315-.958l-5.216-5.216c-.223-.224-.883-.497-1.198-.497h-54.25c-1.804 0-3.272-1.468-3.272-3.272v-43.81c0-1.804 1.468-3.272 3.273-3.272h125.23c1.804 0 3.272 1.47 3.272 3.273v43.808c0 1.805-1.47 3.273-3.273 3.273h-53.52c-.315 0-.976.274-1.197.497l-5.22 5.218c-.615.618-1.438.957-2.314.957z"/><path fill="#FFF" d="M198.614 240.484c.8 0 1.455.654 1.455 1.455v43.808c0 .8-.655 1.455-1.456 1.455h-53.52c-.802 0-1.92.463-2.484 1.03l-5.217 5.216c-.283.282-.656.424-1.03.424s-.745-.142-1.028-.425l-5.217-5.218c-.566-.566-1.684-1.03-2.483-1.03h-54.25c-.8 0-1.455-.653-1.455-1.454v-43.81c0-.8.655-1.454 1.455-1.454h125.23m0-3.636H73.384c-2.807 0-5.09 2.284-5.09 5.092v43.81c0 2.807 2.283 5.09 5.09 5.09h54.12c.042.015.093.036.132.057l5.126 5.126c.96.96 2.24 1.49 3.6 1.49s2.642-.53 3.603-1.492l5.126-5.124c.04-.02.09-.04.132-.055h53.392c2.808 0 5.092-2.283 5.092-5.09v-43.81c-.002-2.808-2.286-5.092-5.094-5.092z"/><g fill="#FFF"><path d="M91.27 252.172c.24 0 .29.17.15.51-.13.35-.306.525-.525.525-.41 0-.96.01-1.647.03-.82.03-1.368.048-1.648.06.01 3.018.165 9.717.464 20.105.01.23-.12.44-.39.63s-.408.128-.418-.18c-.3-10.567-.455-17.396-.465-20.48 0-.01.005-.03.016-.062-1.408.072-2.223-.05-2.442-.36-.13-.18-.08-.413.15-.704.22-.29.4-.332.54-.133.13.18.598.26 1.407.24.24 0 .54-.016.9-.047.36-.02.564-.035.614-.045.28 0 .828-.015 1.647-.044.69-.02 1.24-.034 1.65-.044zM98.82 264.893c.12 3.285-.375 5.736-1.483 7.355-.48.69-.993 1.232-1.543 1.633-.81.59-1.483.65-2.023.18-.787-.688-1.348-2.157-1.676-4.403-1.01-6.8-.9-12.34.328-16.613.05-.15.136-.27.256-.36v-.015c1.51-1.32 2.802-1.062 3.88.776.66 1.13 1.193 2.754 1.603 4.87l.54 2.845s.04 1.244.12 3.733zm-1.693 6.35c.8-1.608 1.044-4.16.734-7.653-.21-2.328-.384-3.852-.523-4.572-1.02-5.133-2.427-7.03-4.226-5.69-.937 3.425-1.062 8.183-.372 14.276.26 2.336.623 3.91 1.093 4.72.46.81 1.05 1.028 1.77.657.598-.308 1.108-.888 1.527-1.736zM115.135 267.244c.1 1.957-.374 3.566-1.423 4.824-1.14 1.37-2.662 1.902-4.57 1.602l-.09-.027c-.228-.082-.374-.51-.434-1.29-.02-.24-.035-.528-.045-.868v-.57c-.11-1.756-.185-3.988-.225-6.697-.01-.55-.03-1.287-.06-2.217-.05-.067-.05-.177 0-.327-.12-3.957-.05-6.89.21-8.795.02-.15.084-.29.194-.42.12-.13.25-.195.388-.195 1.28-.04 2.31.234 3.088.824.898.67 1.253 1.623 1.063 2.863-.278 1.838-1.303 3.504-3.07 5.002 1.338-.03 2.342.307 3.012 1.004 1.18 1.237 1.833 3 1.963 5.288zm-2.682-11.506c-.1-1.55-1.18-2.36-3.235-2.44-.19 1.706-.235 4.214-.137 7.52 2.36-1.63 3.483-3.322 3.373-5.08zm-2.846 16.9c1.997.29 3.38-.364 4.15-1.964.667-1.416.718-3.09.15-5.018-.48-1.64-1.075-2.678-1.784-3.117-.75-.46-1.748-.634-2.997-.524.01.55.02 1.023.03 1.422.04 2.64.104 4.746.194 6.322.102 1.86.186 2.816.257 2.88zM122.207 272.338c.28-.05.374.096.284.434-.09.35-.25.55-.478.6-1.928.36-3.49.46-4.69.3-.14-.02-.214-.12-.224-.3-.21-7.59-.165-14.402.135-20.436.01-.18.064-.344.165-.494.12-.158.265-.244.435-.254.488-.04 1.868-.04 4.135 0 .24.01.29.186.15.523-.13.35-.31.526-.54.526-2.007-.03-3.19-.04-3.55-.03-.07 1.628-.105 4.114-.105 7.462.03 0 1.07-.06 3.116-.182.238-.02.288.145.148.496-.13.35-.31.527-.54.537-.14.01-.594.056-1.363.136-.56.06-1.014.084-1.362.074 0 .8-.006 1.443-.015 1.932-.03 3.396-.04 5.51-.03 6.338 0 .03-.01.24-.03.63-.02.36-.025.66-.015.897.02.77.185 1.164.494 1.186.978.058 2.272-.065 3.88-.375zM132.334 252.158c1.728.03 2.996.7 3.806 2.008.71 1.146.993 2.64.854 4.48-.11 1.558-.484 2.856-1.123 3.894-.75 1.21-1.797 1.928-3.145 2.158.07 3.605.11 6.48.12 8.615 0 .23-.13.44-.39.63-.27.188-.404.128-.404-.18-.01-2.24-.064-5.72-.164-10.444-.09-4.565-.14-8.04-.15-10.427 0-.172.055-.336.165-.496.12-.168.264-.25.434-.24zm.374 11.58c1.5-.148 2.537-1.02 3.117-2.605.48-1.328.563-2.8.254-4.406-.41-2.117-1.59-3.285-3.536-3.506.01 2.307.064 5.813.164 10.518zM144.11 272.787c.04.22-.066.45-.314.69-.262.25-.416.243-.466-.017-.21-1.06-.48-2.4-.81-4.03-.478-2.325-.753-3.67-.823-4.028-.38.01-.894.035-1.543.074-.77.04-1.288.06-1.558.06-.28 3.247-.54 5.778-.78 7.597-.04.26-.188.438-.448.537-.27.11-.38-.004-.33-.342.1-.74.355-3.393.764-7.957-.01-.058-.004-.128.016-.208.1-1.05.2-1.977.3-2.787.26-2.098.724-5.26 1.393-9.482.022-.16.147-.33.375-.51.24-.19.375-.166.405.074.44 3.127 1.148 7.12 2.127 11.984.05.062.065.142.046.24.09.42.364 1.774.823 4.062.34 1.65.613 2.996.823 4.045zm-5.423-8.256c.35-.007.818-.028 1.407-.058.72-.04 1.19-.064 1.41-.074-.71-3.518-1.26-6.52-1.65-9.02-.538 3.295-.888 5.842-1.048 7.64-.03.34-.07.845-.12 1.513zM152.395 273.46c.28-.028.374.126.284.466-.09.35-.25.533-.48.555-1.038.12-1.667-.454-1.888-1.724-.08-.508-.09-1.932-.03-4.27.06-1.977-.1-3.398-.48-4.27-.538-1.277-1.61-1.867-3.22-1.768.08 5.395.12 8.87.12 10.428v.478c0 .24-.135.455-.404.646-.28.19-.42.13-.42-.182 0-1.717-.04-5.203-.12-10.457-.06-4.353-.07-7.84-.03-10.456 0-.17.056-.334.166-.494.13-.19.274-.273.435-.254 1.247.14 2.165.62 2.756 1.438.548.77.788 1.8.718 3.086-.08 1.398-.33 2.457-.748 3.176-.22.38-.73.904-1.528 1.574 2.337.17 3.545 1.854 3.625 5.047 0 .13-.04.682-.12 1.65-.07.98-.1 1.777-.09 2.396l.06 3.086s.463-.05 1.392-.15zm-3.402-16.763c-.05-1.898-.868-3.03-2.457-3.4-.02 2.266-.01 4.94.03 8.016.18-.18.414-.4.704-.66.41-.36.65-.574.72-.645.708-.65 1.043-1.752 1.003-3.31zM159.735 272.338c.28-.05.375.096.285.434-.09.35-.25.55-.48.6-1.927.36-3.49.46-4.69.3-.138-.02-.214-.12-.224-.3-.21-7.59-.164-14.402.135-20.436.012-.18.065-.344.166-.494.12-.158.265-.244.435-.254.49-.04 1.87-.04 4.136 0 .24.01.29.186.15.523-.13.35-.31.526-.54.526-2.007-.03-3.19-.04-3.55-.03-.07 1.628-.105 4.114-.105 7.462.03 0 1.07-.06 3.117-.182.24-.02.29.145.15.496-.13.35-.31.527-.54.537-.14.01-.594.056-1.363.136-.56.06-1.014.084-1.363.074 0 .8-.005 1.443-.014 1.932-.03 3.396-.04 5.51-.03 6.338 0 .03-.01.24-.03.63-.02.36-.024.66-.015.897.02.77.186 1.164.496 1.186.977.058 2.27-.065 3.88-.375zM168.62 252.037c.19 5.715.494 12.79.914 21.23.01.188-.105.395-.346.613-.24.23-.395.215-.465-.045-.658-2.387-1.652-5.424-2.98-9.11-1.777-4.952-2.847-7.974-3.207-9.063.14 6.902.36 12.77.66 17.605.01.24-.12.453-.39.643s-.414.13-.435-.18c-.33-5.402-.57-12.38-.718-20.928 0-.19.114-.395.345-.615.23-.23.384-.215.464.045.64 2.137 1.64 5.074 2.997 8.81 1.488 4.114 2.508 7.04 3.057 8.78-.32-6.654-.555-12.432-.703-17.336-.01-.24.12-.455.39-.645.27-.186.408-.123.42.197zM178.147 252.172c.24 0 .29.17.15.51-.13.35-.305.525-.525.525-.41 0-.96.01-1.647.03-.82.03-1.368.048-1.647.06.008 3.018.164 9.717.465 20.105.01.23-.12.44-.39.63s-.41.128-.42-.18c-.3-10.567-.454-17.396-.466-20.48 0-.01.006-.03.016-.062-1.408.072-2.223-.05-2.44-.36-.13-.18-.08-.413.15-.704.218-.29.397-.332.538-.133.13.18.6.26 1.41.24.238 0 .538-.016.897-.047.36-.02.564-.035.615-.045.28 0 .828-.015 1.646-.044.69-.02 1.24-.034 1.65-.044zM185.713 252.697c.18.14.175.37-.015.688-.19.322-.375.412-.555.27-1.547-1.15-2.672-1.218-3.37-.21-.36.51-.59 1.12-.69 1.828-.1.69-.064 1.338.105 1.95.41 1.386 1.318 2.78 2.727 4.177 1.36 1.35 2.307 2.492 2.848 3.432.81 1.398 1.098 2.838.868 4.316-.19 1.166-.553 2.236-1.092 3.205-.74 1.328-1.614 1.902-2.623 1.723-.938-.18-1.433-.754-1.482-1.723-.03-.8.2-1.613.688-2.44.17-.292.355-.382.555-.272.19.11.2.315.03.616-.618 1.03-.694 1.81-.224 2.336.22.24.47.39.75.45.31.06.594.005.853-.165.77-.488 1.304-1.328 1.603-2.518.28-1.09.295-2.106.045-3.056-.318-1.21-1.077-2.453-2.276-3.73-1.657-1.758-2.63-2.86-2.92-3.313-.66-1.02-1.074-2.07-1.244-3.16-.19-1.228-.02-2.337.51-3.325.56-1.06 1.273-1.684 2.142-1.87.88-.19 1.802.072 2.77.792z"/></g><g><path fill="#248E79" d="M156.913 480.94c-2.23 3.133-24.276 8.824-24.276 8.824s-13.953-5.69-11.725-8.824c2.23-3.132 12.094-5.672 22.035-5.672s16.194 2.54 13.966 5.672z"/><path fill="#FFF" d="M150.637 461.763c0 9.94-18 28-18 28s-18-18.06-18-28 8.06-18 18-18 18 8.058 18 18z"/><text transform="translate(123.3 474.22)" fill="#37B39C" font-family="'Helvetica-Bold'" font-size="31.549">1</text></g><g><path fill="#248E79" d="M156.97 388.56c-2.228 3.132-24.275 8.823-24.275 8.823s-13.952-5.69-11.724-8.824c2.23-3.133 12.095-5.673 22.035-5.673s16.194 2.54 13.966 5.672z"/><path fill="#37B39C" d="M150.578 369.423c0 9.94-18 28-18 28s-18-18.06-18-28 8.06-18 18-18 18 8.058 18 18z"/><text transform="translate(124.242 380.88)" fill="#FFF" font-family="'Helvetica-Bold'" font-size="31.549">3</text></g></svg>